<!-- <svg id="logo-73" width="60" height="40" viewBox="0 0 60 40" fill="none" xmlns="http://www.w3.org/2000/svg"> <path d="M56.25 1.25C56.25 1.94036 56.8096 2.5 57.5 2.5H58.75C59.4404 2.5 60 1.94036 60 1.25C60 0.559648 59.4404 3.49691e-06 58.75 3.49691e-06H57.5C56.8096 3.49691e-06 56.25 0.559648 56.25 1.25Z" class="ccustom" fill="#212326"></path> <path d="M20 40H26.0723L24.3045 38.2322C23.8357 37.7634 23.1998 37.5 22.5368 37.5H20C10.335 37.5 2.5 29.665 2.5 20C2.5 10.335 10.335 2.50001 20 2.5L40 2.5C49.665 2.5 57.5 10.335 57.5 20C57.5 29.665 49.665 37.5 40 37.5H32.5184C31.5238 37.5 30.57 37.1049 29.8667 36.4017L27.7957 34.3306C26.6236 33.1585 25.0338 32.5 23.3762 32.5H20C13.0964 32.5 7.5 26.9036 7.5 20C7.5 13.0964 13.0964 7.5 20 7.5L40 7.5C46.9036 7.5 52.5 13.0964 52.5 20C52.5 26.9036 46.9036 32.5 40 32.5H35.1961C34.2015 32.5 33.2477 32.1049 32.5444 31.4017L30.4733 29.3306C29.3012 28.1585 27.7115 27.5 26.0539 27.5H20C15.8579 27.5 12.5 24.1421 12.5 20C12.5 15.8579 15.8579 12.5 20 12.5L40 12.5C44.1421 12.5 47.5 15.8579 47.5 20C47.5 24.0916 44.2235 27.418 40.1512 27.4985L40.1504 27.5H38.3211C37.3265 27.5 36.3727 27.1049 35.6694 26.4017L33.5983 24.3306C32.6366 23.3688 31.3937 22.7529 30.0628 22.5628L30 22.5L20 22.5C18.6193 22.5 17.5 21.3807 17.5 20C17.5 18.6193 18.6193 17.5 20 17.5L40 17.5C41.3807 17.5 42.5 18.6193 42.5 20C42.5 21.3807 41.3807 22.5 40 22.5H35L36.7678 24.2678C37.2366 24.7366 37.8725 25 38.5355 25H40C42.7614 25 45 22.7614 45 20C45 17.2386 42.7614 15 40 15L20 15C17.2386 15 15 17.2386 15 20C15 22.7614 17.2386 25 20 25L29.1789 25C30.1735 25 31.1273 25.3951 31.8306 26.0983L33.9017 28.1694C35.0738 29.3415 36.6635 30 38.3211 30H40.625V29.9808C45.8567 29.6582 50 25.3129 50 20C50 14.4772 45.5228 10 40 10L20 10C14.4772 10 10 14.4772 10 20C10 25.5229 14.4772 30 20 30H26.0539C27.0485 30 28.0023 30.3951 28.7056 31.0983L30.7767 33.1694C31.9488 34.3415 33.5385 35 35.1961 35H40C48.2843 35 55 28.2843 55 20C55 11.7157 48.2843 5 40 5L20 5C11.7157 5 5 11.7157 5 20C5 28.2843 11.7157 35 20 35H23.3762C24.3708 35 25.3246 35.3951 26.0279 36.0983L28.099 38.1694C29.2711 39.3415 30.8608 40 32.5184 40H40C51.0457 40 60 31.0457 60 20C60 8.9543 51.0457 -9.65645e-07 40 0L20 4.13264e-06C8.9543 5.09829e-06 -9.65645e-07 8.95431 0 20C9.65645e-07 31.0457 8.95431 40 20 40Z" class="ccustom" fill="#212326"></path> </svg> -->

<svg id="logo-37" width="42" height="38" viewBox="0 0 42 38" fill="none" xmlns="http://www.w3.org/2000/svg"> <path d="M5.74661 28.7259C7.28678 29.8002 9.78389 29.8002 11.3241 28.7259C12.8642 27.6516 12.8642 25.9098 11.3241 24.8355C9.78389 23.7612 7.28678 23.7612 5.74661 24.8355C4.20644 25.9098 4.20644 27.6516 5.74661 28.7259Z" class="ccustom" fill="#25CAAC"></path> <path d="M21.7322 14.1371C24.0425 15.7485 27.7881 15.7485 30.0984 14.1371C32.4086 12.5256 32.4086 9.91298 30.0984 8.30155C27.7881 6.69011 24.0425 6.69011 21.7322 8.30155C19.422 9.91298 19.422 12.5256 21.7322 14.1371Z" class="ccustom" fill="#25CAAC"></path> <path d="M13.2464 21.4315C15.1716 22.7743 18.293 22.7743 20.2182 21.4315C22.1434 20.0886 22.1434 17.9114 20.2182 16.5685C18.293 15.2257 15.1716 15.2257 13.2464 16.5685C11.3212 17.9114 11.3212 20.0886 13.2464 21.4315Z" class="ccustom" fill="#25CAAC"></path> <path d="M0.866345 20.4589C2.02147 21.2646 3.8943 21.2646 5.04943 20.4589C6.20455 19.6532 6.20455 18.3469 5.04943 17.5411C3.8943 16.7354 2.02147 16.7354 0.866345 17.5411C-0.288782 18.3469 -0.288781 19.6532 0.866345 20.4589Z" class="ccustom" fill="#25CAAC"></path> <path d="M13.2464 5.87008C15.1716 7.21294 18.293 7.21294 20.2182 5.87008C22.1434 4.52722 22.1434 2.35001 20.2182 1.00715C18.293 -0.335715 15.1716 -0.335716 13.2464 1.00715C11.3212 2.35001 11.3212 4.52722 13.2464 5.87008Z" class="ccustom" fill="#25CAAC"></path> <path d="M5.74661 13.1645C7.28678 14.2388 9.78389 14.2388 11.3241 13.1645C12.8642 12.0902 12.8642 10.3484 11.3241 9.27415C9.78389 8.19986 7.28678 8.19986 5.74661 9.27415C4.20644 10.3484 4.20645 12.0902 5.74661 13.1645Z" class="ccustom" fill="#25CAAC"></path> <path d="M13.2464 36.9929C15.1716 38.3357 18.293 38.3357 20.2182 36.9929C22.1434 35.65 22.1434 33.4728 20.2182 32.1299C18.293 30.7871 15.1716 30.7871 13.2464 32.1299C11.3212 33.4728 11.3212 35.65 13.2464 36.9929Z" class="ccustom" fill="#25CAAC"></path> <path d="M31.9011 21.9178C34.2114 23.5292 37.9571 23.5292 40.2673 21.9178C42.5776 20.3064 42.5776 17.6937 40.2673 16.0823C37.9571 14.4708 34.2114 14.4708 31.9011 16.0823C29.5909 17.6937 29.5909 20.3064 31.9011 21.9178Z" class="ccustom" fill="#25CAAC"></path> <path d="M21.7322 29.6984C24.0425 31.3099 27.7881 31.3099 30.0984 29.6984C32.4086 28.087 32.4086 25.4744 30.0984 23.8629C27.7881 22.2515 24.0425 22.2515 21.7322 23.8629C19.422 25.4744 19.422 28.087 21.7322 29.6984Z" class="ccustom" fill="#25CAAC"></path> </svg>
